PathFileType	4	(X/Y/Z)	E:\Marcel_BSc\Ayumi_22_01_2025\22-01-2025\conv_dl_0.trc
DataRate	CameraRate	NumFrames	NumMarkers	Units	OrigDataRate	OrigDataStartFrame	OrigNumFrames
200.0	200.0	8	47	mm	200.0	1	2348	
Frame#	Time	FHD			LBHD			RBHD			RBAR			LBAR			RSACR			LSACR			USACR			C7			CLAV			T10			RSHO			LSHO			LTHI1			LTHI3			LTHI2			LTIB1			LTIB2			LTIB3			LMMAL			LLMAL			LHEE			LMT1			LMT5			LMT3			RTHI1			RTHI2			RTHI3			RTIB1			RTIB3			RTIB2			RLMAL			RMMAL			RHEE			RMT5			RMT1			RMT3			LMUPA			LDUPA			LUUPA			LRAD			RUL			RRAD			RUFIN			RMUPA			RDUPA			RUUPA			
		X1	Y1	Z1	X2	Y2	Z2	X3	Y3	Z3	X4	Y4	Z4	X5	Y5	Z5	X6	Y6	Z6	X7	Y7	Z7	X8	Y8	Z8	X9	Y9	Z9	X10	Y10	Z10	X11	Y11	Z11	X12	Y12	Z12	X13	Y13	Z13	X14	Y14	Z14	X15	Y15	Z15	X16	Y16	Z16	X17	Y17	Z17	X18	Y18	Z18	X19	Y19	Z19	X20	Y20	Z20	X21	Y21	Z21	X22	Y22	Z22	X23	Y23	Z23	X24	Y24	Z24	X25	Y25	Z25	X26	Y26	Z26	X27	Y27	Z27	X28	Y28	Z28	X29	Y29	Z29	X30	Y30	Z30	X31	Y31	Z31	X32	Y32	Z32	X33	Y33	Z33	X34	Y34	Z34	X35	Y35	Z35	X36	Y36	Z36	X37	Y37	Z37	X38	Y38	Z38	X39	Y39	Z39	X40	Y40	Z40	X41	Y41	Z41	X42	Y42	Z42	X43	Y43	Z43	X44	Y44	Z44	X45	Y45	Z45	X46	Y46	Z46	X47	Y47	Z47	
1	-0.005	155.15358	1611.406	-600.87897	171.22437	1595.3794	-540.29095	196.73581	1580.7786	-670.62891	244.11696	241.82996	-1723.4666	265.63406	251.74416	499.64151	378.65094	963.48517	-641.53766	377.63968	963.73865	-568.11932	372.02762	974.64331	-605.55243	351.64011	1400.8721	-588.26385	213.25739	1338.271	-604.61859	364.24326	1124.1594	-597.56073	291.39566	1413.9432	-735.29425	273.23007	1404.1713	-454.30722	302.9884	612.91833	-421.00317	325.02911	551.52698	-431.8938	274.84509	552.2854	-424.79019	317.04849	243.07962	-412.35095	368.15997	237.95718	-417.27829	336.76346	180.40828	-420.06454	328.75754	73.712051	-502.93118	350.16455	73.416992	-431.2706	387.90875	36.124924	-473.90622	190.81035	43.874073	-452.72391	222.23053	28.815763	-377.40192	193.12039	40.767464	-417.93442	311.30429	613.52399	-783.74579	283.44205	554.38708	-779.00342	334.58185	552.93866	-775.98541	319.48529	281.26874	-794.73242	339.02185	218.33479	-789.32996	369.73331	276.90433	-792.34125	345.01953	74.508324	-771.82178	311.86407	79.268059	-701.92865	385.41064	31.426128	-729.74066	210.88857	32.259495	-812.22882	184.55739	41.156254	-750.92896	190.39612	38.489456	-782.112	309.3891	1356.7015	-268.09741	330.87054	1311.5637	-265.50192	324.74539	1360.8806	-328.2706	239.36191	1356.2325	57.285542	343.60336	1364.1943	-1235.903	287.96432	1391.4988	-1236.4812	289.2442	1395.2827	-1309.884	360.42209	1365.2736	-842.77783	359.14627	1352.2704	-903.55127	373.38803	1317.7651	-833.85352
2	0	155.14055	1611.4128	-600.92242	171.20963	1595.3993	-540.3064	196.73932	1580.775	-670.64856	244.10727	241.86322	-1723.4757	265.64584	251.75369	499.63947	378.65756	963.47693	-641.51221	377.65347	963.74286	-568.0957	372.04535	974.64185	-605.52393	351.64124	1400.8716	-588.27649	213.28371	1338.2612	-604.62146	364.2684	1124.1595	-597.55627	291.39868	1413.922	-735.31464	273.22458	1404.1649	-454.32617	303.0358	612.92725	-420.966	325.07217	551.5434	-431.86859	274.87625	552.29675	-424.75076	317.1171	243.0946	-412.31552	368.17233	237.94316	-417.26425	336.77991	180.40053	-420.05627	328.7619	73.719559	-502.92795	350.19052	73.424004	-431.26212	387.91943	36.129997	-473.89908	190.80946	43.884686	-452.71924	222.57439	28.276642	-377.70462	193.12183	40.767303	-417.94122	311.29193	613.52179	-783.7157	283.44858	554.40375	-778.96564	334.57745	552.93518	-775.95312	319.46402	281.28967	-794.70673	339.00876	218.33644	-789.32764	369.72562	276.90536	-792.33624	345.00861	74.51577	-771.82153	311.86795	79.276451	-701.92822	385.41818	31.431637	-729.73798	210.8994	32.2649	-812.21362	184.54146	41.162411	-750.92609	190.4077	38.503799	-782.11011	309.40182	1356.6888	-268.10916	330.8736	1311.5536	-265.51718	324.74756	1360.8713	-328.28131	239.38571	1356.2296	57.279343	343.57928	1364.0585	-1235.9235	287.92722	1391.3604	-1236.4888	289.18704	1395.1406	-1309.8954	360.41513	1365.2355	-842.78754	359.14954	1352.2069	-903.55994	373.37418	1317.7355	-833.84735
3	0.005	155.14639	1611.4041	-600.96179	171.19237	1595.4122	-540.33582	196.7394	1580.78	-670.6618	244.13324	241.84068	-1723.4711	265.64499	251.75658	499.63583	378.67917	963.46552	-641.48077	377.66351	963.73877	-568.08081	372.06863	974.62665	-605.50409	351.62994	1400.8788	-588.28192	213.29834	1338.2336	-604.63196	364.28229	1124.1664	-597.57104	291.3949	1413.9188	-735.3244	273.22971	1404.1517	-454.32669	303.05032	612.92847	-420.93442	325.09421	551.53711	-431.83905	274.87061	552.48212	-424.42236	317.14297	243.06012	-412.29486	368.15891	237.93326	-417.25052	336.80545	180.40132	-420.03195	328.76636	73.721367	-502.92856	350.18161	73.424568	-431.2601	387.90112	36.147358	-473.8924	190.80385	43.87846	-452.72192	222.15413	28.820982	-377.42068	193.11853	40.774734	-417.93402	311.29227	613.5174	-783.67682	283.42746	554.3894	-778.93921	334.54379	552.94855	-775.94189	319.44839	281.28622	-794.6889	338.99762	218.35892	-789.30804	369.70596	276.91623	-792.31525	345.00793	74.518997	-771.81451	311.86182	79.269356	-701.92169	385.41223	31.433355	-729.74579	210.89848	32.263676	-812.20502	184.55431	41.157192	-750.92773	190.40491	38.498436	-782.11719	309.41962	1356.6829	-268.11639	330.88669	1311.5464	-265.52872	324.76096	1360.8777	-328.27936	239.4032	1356.2157	57.261337	343.55115	1363.9354	-1235.9396	287.8783	1391.2622	-1236.4969	289.14703	1395.0018	-1309.9016	360.4101	1365.2072	-842.80176	359.13248	1352.166	-903.57349	373.36484	1317.6952	-833.84747
4	0.01	155.13138	1611.4331	-600.96783	171.18141	1595.4137	-540.34918	196.73624	1580.7883	-670.68073	243.94139	241.41162	-1723.7223	265.64612	251.74913	499.64899	378.69327	963.45575	-641.4624	377.68991	963.74506	-568.05731	372.08936	974.63147	-605.48193	351.63608	1400.89	-588.29907	213.31952	1338.2062	-604.64642	364.30432	1124.1622	-597.5741	291.38965	1413.9008	-735.35132	273.22763	1404.1487	-454.34692	303.0881	612.92761	-420.90195	325.12759	551.55652	-431.82013	274.93436	552.31335	-424.68137	317.10107	243.06897	-412.30731	368.19647	237.94954	-417.25006	336.82098	180.39052	-420.03214	328.77045	73.712555	-502.9201	350.18323	73.432022	-431.24994	387.91342	36.129604	-473.90262	190.80531	43.881809	-452.72592	222.16991	28.819302	-377.40933	193.12694	40.76918	-417.92871	311.25558	613.51575	-783.64093	283.39517	554.40558	-778.92395	334.51865	552.92688	-775.92004	319.44537	281.28247	-794.66577	338.98956	218.3548	-789.2854	369.69556	276.92072	-792.30359	345.01318	74.519409	-771.80701	311.87024	79.277451	-701.91864	385.41986	31.433735	-729.73029	210.88882	32.274632	-812.21741	184.56001	41.166451	-750.92438	190.41461	38.498375	-782.10938	309.41327	1356.674	-268.13318	330.89023	1311.5298	-265.55087	324.77505	1360.8589	-328.30249	239.43791	1356.2114	57.250553	343.53278	1363.8132	-1235.9557	288.28833	1390.4954	-1236.7714	289.11172	1394.8424	-1309.9336	360.72876	1365.09	-842.75366	359.11734	1352.1296	-903.58771	373.35007	1317.6694	-833.854
5	0.015	155.13452	1611.4153	-601.01984	171.1805	1595.4564	-540.34692	196.73506	1580.7917	-670.677	244.12018	241.85808	-1723.4607	265.67569	251.74025	499.59607	378.70135	963.44159	-641.44763	377.71185	963.74658	-568.03021	372.09583	974.625	-605.45801	351.62531	1400.9044	-588.31226	213.32558	1338.1835	-604.66553	364.31799	1124.1675	-597.58112	291.36584	1413.8922	-735.36499	273.23016	1404.1392	-454.35803	303.11954	612.94189	-420.86829	325.12778	551.54779	-431.79202	274.94022	552.29724	-424.65021	317.12698	243.07727	-412.28683	368.21698	237.95543	-417.24539	336.82007	180.37874	-420.02719	328.75879	73.724457	-502.91425	350.17108	73.409378	-431.25803	387.8862	36.149128	-473.89172	190.81242	43.881496	-452.71725	222.18944	28.769722	-377.43213	193.13589	40.75116	-417.91345	311.22971	613.51086	-783.6236	283.37927	554.40948	-778.87488	334.49698	552.91785	-775.89612	319.10754	281.17603	-794.7962	338.96432	218.35995	-789.2774	369.67001	276.92126	-792.28912	345.00912	74.521744	-771.80383	311.86493	79.264786	-701.91217	385.41135	31.416885	-729.74988	210.9234	32.270046	-812.21021	184.5611	41.157696	-750.92743	190.4075	38.483456	-782.10065	309.41507	1356.6677	-268.15524	330.88654	1311.5188	-265.57809	324.78687	1360.8376	-328.31345	239.44743	1356.2012	57.230877	343.5166	1363.6925	-1235.9742	288.23438	1390.3873	-1236.7692	289.09717	1394.6688	-1309.9789	360.72534	1365.0502	-842.78552	359.10907	1352.0699	-903.60181	373.33652	1317.6356	-833.86627
6	0.02	155.10837	1611.4513	-600.9975	171.15916	1595.5007	-540.33362	196.73062	1580.8126	-670.67499	244.16656	241.83051	-1723.45	265.70596	251.73065	499.56302	378.73843	963.4209	-641.42316	377.73068	963.7439	-568.01599	372.11426	974.62866	-605.44763	351.60995	1400.9043	-588.33307	213.3378	1338.1527	-604.6842	364.31079	1124.1523	-597.60077	291.33087	1413.8749	-735.39233	273.22565	1404.1239	-454.37601	303.142	612.95355	-420.82416	325.17273	551.55566	-431.75766	274.94601	552.29871	-424.62503	317.55814	242.62714	-412.40863	368.2345	237.9313	-417.25937	336.85425	180.3875	-420.00232	328.75543	73.727097	-502.89255	350.16858	73.391174	-431.26636	387.90289	36.149677	-473.87399	190.81114	43.878109	-452.72275	221.94223	29.238758	-377.31592	193.14435	40.741852	-417.90079	311.21643	613.51569	-783.60901	283.35815	554.40216	-778.86847	334.48593	552.91382	-775.86383	318.87555	281.29169	-794.79706	338.96243	218.36171	-789.2641	369.66855	276.91846	-792.27484	345.01492	74.505058	-771.80054	311.86057	79.261566	-701.91125	385.41876	31.413578	-729.75995	210.92644	32.274597	-812.22211	184.58051	41.163391	-750.92352	190.4256	38.492397	-782.09613	309.42923	1356.6448	-268.18259	330.8786	1311.505	-265.60471	324.78308	1360.8407	-328.31238	239.46159	1356.1775	57.19418	343.50674	1363.5707	-1236.0081	288.20679	1390.2712	-1236.7931	289.07877	1394.4833	-1310.0262	360.64423	1365.0392	-842.81726	359.10013	1352.0289	-903.62195	373.31757	1317.6277	-833.87537
7	0.025	155.09723	1611.4629	-600.99872	171.14285	1595.5338	-540.323	196.73639	1580.832	-670.66656	243.98698	241.4895	-1723.6764	265.72244	251.72731	499.52972	378.74683	963.39789	-641.4071	377.75732	963.75146	-567.99811	372.15045	974.59949	-605.43243	351.58893	1400.915	-588.35809	213.34999	1338.1251	-604.72205	364.33041	1124.1515	-597.60004	291.31635	1413.8661	-735.41803	273.22739	1404.0994	-454.39273	303.15155	612.95471	-420.78595	325.17947	551.54382	-431.73254	274.97388	552.28674	-424.60178	317.17288	243.11267	-412.26276	368.26984	237.90889	-417.21948	336.87402	180.35864	-419.99548	328.75375	73.736504	-502.89111	350.16058	73.376106	-431.28418	387.88684	36.158825	-473.8674	190.81912	43.87281	-452.71771	221.97115	29.1744	-377.33276	193.16328	40.711685	-417.87274	311.18674	613.52325	-783.58295	283.33118	554.38806	-778.83301	334.46716	552.89398	-775.84039	319.07651	281.18533	-794.73291	338.95007	218.35622	-789.24432	369.65244	276.92783	-792.26953	345.02502	74.50164	-771.7937	311.85721	79.252174	-701.89587	385.42746	31.388626	-729.77051	210.94299	32.280682	-812.2348	184.61656	40.981064	-751.40857	190.40227	38.504173	-782.09747	309.43704	1356.6359	-268.19949	330.88083	1311.4904	-265.63565	324.79327	1360.8143	-328.34705	239.48296	1356.1644	57.178402	343.49396	1363.4503	-1236.0309	288.21631	1390.1423	-1236.8208	289.06378	1394.2968	-1310.0681	360.62714	1364.9955	-842.85822	359.09021	1351.9824	-903.64758	373.30521	1317.6072	-833.88782
8	0.03	155.07304	1611.5006	-600.96289	171.11032	1595.5785	-540.30658	196.73289	1580.8578	-670.65924	244.15891	241.84572	-1723.4685	265.74084	251.71646	499.48666	378.78488	963.37885	-641.37988	377.77612	963.74792	-567.9823	372.1785	974.59705	-605.41443	351.56842	1400.9368	-588.3833	213.3506	1338.097	-604.74243	364.34012	1124.1379	-597.61237	291.2778	1413.8715	-735.43707	273.22183	1404.0898	-454.40823	303.19989	612.96735	-420.72369	325.18451	551.54431	-431.7236	274.98642	552.29388	-424.56491	317.27301	243.16319	-412.22009	368.3017	237.92052	-417.23947	336.89218	180.35559	-419.97421	328.75922	73.744049	-502.87378	350.16919	73.357628	-431.27518	387.88177	36.138725	-473.86868	190.82695	43.878342	-452.71835	222.60593	28.270966	-377.6871	193.17502	40.708488	-417.8606	311.1763	613.5061	-783.56494	283.32382	554.35486	-778.8114	334.45056	552.88269	-775.81128	319.0687	281.21869	-794.72491	338.95865	218.36937	-789.23645	369.65149	276.91946	-792.25854	345.01758	74.490334	-771.78937	311.84454	79.239319	-701.89838	385.43073	31.393888	-729.77942	210.94331	32.269112	-812.24695	184.6125	40.976299	-751.37042	190.4115	38.490414	-782.10327	309.45621	1356.6158	-268.24203	330.87341	1311.4629	-265.67111	324.80557	1360.821	-328.36093	239.4937	1356.1594	57.141869	343.49356	1363.3374	-1236.0553	288.20319	1390.0359	-1236.8319	289.04321	1394.1282	-1310.118	360.62949	1364.9595	-842.88428	359.0831	1351.9414	-903.66998	373.29398	1317.5884	-833.91193
